PathFileType	4	(X/Y/Z)	24_1_34_p1_0-405.trc
DataRate	CameraRate	NumFrames	NumMarkers	Units	OrigDataRate	OrigDataStartFrame	OrigNumFrames
59.0	59.0	7	27	m	59.0	304	406
Frame#	Time	RHip			RKnee			RAnkle			RBigToe			RSmallToe			RHeel			LHip			LKnee			LAnkle			LBigToe			LSmallToe			LHeel			Neck			Head			Nose			RShoulder			RElbow			RWrist			RThumb			RIndex			RPinky			LShoulder			LElbow			LWrist			LThumb			LIndex			LPinky			
		X1	Y1	Z1	X2	Y2	Z2	X3	Y3	Z3	X4	Y4	Z4	X5	Y5	Z5	X6	Y6	Z6	X7	Y7	Z7	X8	Y8	Z8	X9	Y9	Z9	X10	Y10	Z10	X11	Y11	Z11	X12	Y12	Z12	X13	Y13	Z13	X14	Y14	Z14	X15	Y15	Z15	X16	Y16	Z16	X17	Y17	Z17	X18	Y18	Z18	X19	Y19	Z19	X20	Y20	Z20	X21	Y21	Z21	X22	Y22	Z22	X23	Y23	Z23	X24	Y24	Z24	X25	Y25	Z25	X26	Y26	Z26	X27	Y27	Z27	
304	5.1525423728813555	0.4252029890149435	0.4783922474486356	0.7655683643459653	0.43698208322516013	0.5965283963742285	1.243912684641102	0.42183609353779983	0.65207698409349	1.702651960847988	0.41418479843056427	0.5436012165588773	1.7366823923077586	0.4762233027673045	0.5362379495572048	1.7137392159090223	0.38519695015415734	0.7433102394818769	1.7720773866282646	0.22110000750052924	0.4925355346270186	0.7897114012208846	0.20171844229226732	0.5939594444420291	1.2675348786132925	0.20019608586766074	0.6618503464636386	1.7099236101051023	0.24356422979296985	0.4925596154803129	1.7218270771826274	0.1820701915884162	0.5382716610498522	1.7297324959056457	0.1891531681963944	0.7114565112621837	1.7552293695334265	0.31809827827127807	0.45551006955345164	0.2514871461707485	0.34704861486369304	0.36508621945412356	0.02194031089929537	0.3388686854627055	0.30028710875607056	0.13630729020185675	0.4654435970034101	0.44076088513485084	0.3264503825250303	0.5052412212712939	0.29074785837844425	0.4892946260422916	0.47351096637600204	0.20821580081322502	0.2926033664349819	0.431854487209466	0.264668021792773	0.21976829186900296	0.43544494751617435	0.16306422946438762	0.20874588661403323	0.4478902337504805	0.13332061133677744	0.23111041546895478	0.17712500189791633	0.4388795429513576	0.35838927760661504	0.14720161657920566	0.43302172156635904	0.6149160792850882	0.16859064888646086	0.4154608367475767	0.8687703174029239	0.22808580272618176	0.3563902241725416	0.950156832420794	0.20535663029482104	0.3548338731766179	0.9692149106381875	0.14842503673584992	0.4365701317842569	0.9970340786042056
305	5.169491525423729	0.425206478855859	0.47847349150508006	0.7656209736377779	0.4369704700868603	0.5965829522492511	1.243964964719684	0.4218412364214137	0.6520755494889624	1.7026421025777865	0.4146860547103045	0.5419602410932877	1.7403216255827796	0.4745718464464457	0.5332211103615848	1.7167243809313337	0.3851824276358284	0.7433250086104767	1.7718419603285613	0.2214647183219778	0.4916882424280079	0.7932719074621031	0.20168987512974507	0.5939343003157481	1.2675557602332015	0.20021104853204552	0.6617418034678897	1.70988305709568	0.2435691743773256	0.49243653870989235	1.7218495397141433	0.18200181944105256	0.5383315640144098	1.729863067700966	0.18909528102978165	0.7115081473822165	1.7552733853662073	0.317770102311965	0.45583389199825447	0.24834377117212167	0.34701608778915505	0.3651289558169319	0.021968269578590972	0.33896530125525753	0.30049419944369965	0.13622498682269046	0.46540725968746294	0.4407648812864233	0.326457579371709	0.5077778847852715	0.30166115212103917	0.48694274824712985	0.47346818050941447	0.20818762651522127	0.292673451427298	0.4316996321225614	0.26445034385731614	0.2199175654944184	0.43521962016218096	0.16254433372747545	0.20889586898672646	0.4475517329375712	0.13289060773570488	0.23124747166277024	0.17828763676111825	0.45145946833023903	0.3587173407560177	0.14722884047680587	0.43298614877372593	0.6150382964551175	0.168624099823635	0.41544850104586095	0.8689142618429844	0.22849229316520106	0.35548235617519586	0.953533764087708	0.20529082605796586	0.3547432848409595	0.969257538795431	0.14847890143737943	0.4362840957724399	0.9971095046709402
306	5.186440677966102	0.425227239786994	0.478596719282204	0.7657506778844663	0.4357694007273588	0.5987297845608316	1.2449566265146748	0.42183255238807327	0.6522506246531872	1.7028939992998107	0.41416636605451085	0.5438488186300903	1.7360579065072073	0.47931417337225335	0.5483372195933904	1.7230753850026213	0.38611221645586086	0.7465773926782302	1.777788900280636	0.22143894257977387	0.49174340546371864	0.7933545182952862	0.20027769740312285	0.596043428678896	1.2677968047084118	0.20018449754452594	0.6617822121612781	1.7100357778334037	0.24351694921236633	0.4925203951697192	1.721916597211327	0.18191065947943402	0.5382518762489797	1.7297502579856954	0.1891415508631916	0.7114792518498653	1.7553944799261385	0.31812011891992487	0.45532445258494886	0.25145239983618584	0.3470162221982991	0.3650732398960261	0.02194665291040061	0.3389367835185487	0.3005502540125273	0.13618964214179016	0.4690907997482011	0.4428155826979102	0.3263932790872072	0.5078470161784173	0.3019357135486092	0.486936209829526	0.4735004425549644	0.2083859404791159	0.2926133527639988	0.4317772202519031	0.26457371492728465	0.219809433044397	0.43485150304129555	0.1614536185751553	0.20669584059625912	0.4471147722602023	0.1326095250767938	0.231529228096899	0.1770873904762213	0.4387756318250164	0.35844954737594326	0.14736792778814506	0.4352607899143325	0.6194286372497322	0.16862057769182934	0.4154926971757176	0.8688815716645962	0.22664892033085826	0.3425252821561113	0.9468158675795095	0.20527487154969873	0.3546527285335546	0.9692134288971986	0.1487698371809006	0.43846411227791837	1.001644051134318
307	5.203389830508475	0.4255911087247485	0.47784003195625097	0.7694762646098505	0.437008972197312	0.5966228550800688	1.2440696884428541	0.42183599146849854	0.6519280475417338	1.7028156738985116	0.41476497211964813	0.5419372115813178	1.7394472941144294	0.4766872003441131	0.5339423208296145	1.7168174329995518	0.38520313652675253	0.7434279751486992	1.772070196066668	0.21512722115234004	0.5050203766923089	0.7959843183060343	0.2007679718247463	0.5948075981188378	1.2717290312320617	0.2001788054101296	0.6617985567070473	1.7099656760943074	0.24357359479416657	0.49230782192550143	1.7218442196615051	0.1819955983685789	0.5382031926929114	1.7298397097093627	0.18906158809067414	0.7117477218153099	1.7552718340144329	0.31779076289300695	0.4557003644878493	0.24830422221940485	0.3469776995612633	0.3650407914038969	0.021787690149285072	0.3388637840138192	0.30053555777752144	0.13613654954763177	0.4690504538350842	0.4426774928560575	0.32635921984969063	0.5109343643773296	0.3024065624431572	0.483439022502011	0.473296824466063	0.20698756129262671	0.28934674500000207	0.43160073325821846	0.26410907766384073	0.21787933043500435	0.43473774635830786	0.16120997371336732	0.20672928993669515	0.44716939846789044	0.13216390066247474	0.23177187700559138	0.17709473303295598	0.43884330140408406	0.35845427192030255	0.14718961506267197	0.4332848396829049	0.6153216777804413	0.16864588889315316	0.41552684011492763	0.8689468550923627	0.22817071520318646	0.35358357492802994	0.9492639577909832	0.2053806148098205	0.3547131119912905	0.969236754657528	0.14884979725568306	0.4387933864526895	1.0016965574732595
308	5.220338983050848	0.4252251750512476	0.47876316733725405	0.765745238017072	0.43019195349710626	0.5810609439562401	1.2396853722814498	0.4218590096882774	0.6523852305239427	1.702683037857301	0.41402846604743176	0.5434910628533066	1.736637892852797	0.47492056800324123	0.5367896461992585	1.7180788689775066	0.3878532812558141	0.7589204892362783	1.778682295564547	0.21474822155292217	0.5059365132168536	0.7922445998837564	0.2007379154285357	0.5947741970935936	1.2716668510935334	0.20023168916752382	0.6616737296627407	1.7098476171651065	0.24356615389471434	0.49232099179651145	1.7218501207200123	0.18203185960035936	0.5383437372074484	1.7300036243762307	0.18915308051714783	0.7114275274932028	1.755229964819365	0.31818267217841084	0.4552645223428715	0.2515417692784039	0.34694955892808127	0.36489914524943085	0.02172230222362902	0.3388634251686514	0.3007149572716709	0.13610727723676785	0.4690681204116732	0.4426380377402984	0.3263464272741304	0.5090736479932819	0.29276468832358704	0.48928704988440774	0.4732224196516592	0.20678822463419125	0.2894234562937987	0.42937722237429415	0.25565375661498135	0.21790429062219113	0.43072249966203696	0.15596743529982798	0.20457945201148786	0.4469876656421866	0.13147654436883147	0.23204531895306588	0.17709645002764585	0.4387731606104584	0.35843319380990013	0.14783065752665853	0.43492303670899485	0.615917724571914	0.17217658793241755	0.4178507123774458	0.8693553990577588	0.22821451616996347	0.3536185971965331	0.949277991030943	0.20539359932604281	0.3544286820970798	0.969224847000016	0.1489251855073458	0.43852118849731037	1.0016559020966926
309	5.237288135593221	0.42534774594617486	0.47868492055783857	0.7657440489012097	0.43703085417358284	0.5966176593296106	1.2439944545996149	0.4218390317478397	0.6522263912627968	1.7026998036331766	0.4145163044212887	0.5415828218606974	1.739445817588204	0.472447286958656	0.5173339810543879	1.7044715149415035	0.38793745688197595	0.7591361676809147	1.778300261558893	0.22109289148116124	0.49271255628630706	0.7897247770244487	0.2008321274267839	0.5946934824040873	1.2715900443863337	0.20024119706443474	0.6616538631634005	1.7099023036613001	0.24794548826112847	0.46496638987240907	1.7086780129117092	0.1824129372966473	0.5369088861650474	1.7330119069738033	0.18911786236656578	0.7112434283618212	1.7555487860045695	0.3183959794341029	0.4550231860496012	0.24832245713172804	0.3470106353091174	0.3648937828842209	0.02175783696798739	0.33884930390279516	0.3006508871708182	0.13617298769117528	0.46904565650892804	0.44269506927062546	0.3262512626589905	0.5087411454812822	0.2912309053358803	0.4858321221415854	0.47322388365531765	0.2068981265944874	0.2893997253648499	0.4290797737874917	0.2555575143621923	0.21812216168712015	0.4318015946360769	0.15141900736337993	0.20724569615712551	0.44634481455785374	0.13101160213702318	0.23232875939845504	0.17710369508781557	0.43878690203886134	0.3583950923245786	0.14779344684908027	0.4348590543949921	0.615867439314087	0.17212120163395472	0.41794483373421687	0.8693050870052589	0.22830498306506675	0.35374895308603255	0.949548659013097	0.20966476841506945	0.35549281238980057	0.9689277420036944	0.14895287296838106	0.43896562023096386	1.0017366312113916
310	5.254237288135593	0.4253427865093516	0.47866935852266174	0.7655813579557645	0.4357482080405962	0.5984674821021052	1.2446613419658423	0.4218663075983021	0.6522545235222604	1.702616115321562	0.41454739650912015	0.5419585886079353	1.7394818948612658	0.47616846524636336	0.533914947243605	1.716436126641773	0.38793885645731396	0.7588521199291146	1.7781831751215083	0.22074578867420425	0.49052148228362247	0.7847832851509958	0.20077476658224364	0.594647968916589	1.2715558047791784	0.20091793318658144	0.6598926731355823	1.713477857792528	0.25015435512897005	0.4787855496050809	1.7149878810706163	0.1821808845319347	0.5375832801582753	1.7333816054691245	0.18927132065252572	0.7108690162453837	1.7553444483495466	0.31811197794955537	0.45350310059020776	0.2442392331452426	0.34322250005898736	0.3627338735694018	0.022038290667474845	0.3389753119111932	0.30069426490942547	0.13616321779399818	0.46527600444834183	0.44079216752968897	0.32644695999516177	0.5083244096910272	0.2897435808400349	0.4824509724315573	0.47295557237916375	0.20570216775427366	0.28602689168119905	0.4204803043589799	0.26357049181854525	0.2181445137160645	0.42840426420678335	0.14793848836049847	0.20327425455334547	0.44305334852324807	0.12876088219191523	0.22890648263696872	0.1771327643639051	0.43879630442946055	0.3583470706092587	0.14775221578205788	0.43462427009747945	0.6157608562726372	0.16868667110966692	0.415599948058246	0.869100716315416	0.22877872450982772	0.35571982807004077	0.9537629808166267	0.20983924587400782	0.35536754817447747	0.9691510991609974	0.15471490580419314	0.42750432115444953	0.9987574404835616
